<svg version="1.1" id="Layer_1" xmlns="http://www.w3.org/2000/svg" xmlns:xlink="http://www.w3.org/1999/xlink" x="0px" y="0px"
	 width="100%" viewBox="0 0 2048 2048" enable-background="new 0 0 2048 2048" xml:space="preserve">
<path fill="#000000" opacity="0" stroke="none" 
	d="
M1077.000000,2049.000000 
	C718.000000,2049.000000 359.500000,2049.000000 1.000000,2049.000000 
	C1.000000,1366.333374 1.000000,683.666687 1.000000,1.000000 
	C683.666687,1.000000 1366.333374,1.000000 2049.000000,1.000000 
	C2049.000000,683.666687 2049.000000,1366.333374 2049.000000,2049.000000 
	C1725.166626,2049.000000 1401.333374,2049.000000 1077.000000,2049.000000 
M1447.376221,1887.934937 
	C1462.221802,1880.142944 1477.315552,1872.784058 1491.851929,1864.452637 
	C1511.421143,1853.236572 1531.011353,1841.947388 1549.768921,1829.453125 
	C1572.380737,1814.391968 1594.360352,1798.345337 1616.165405,1782.122803 
	C1629.538696,1772.173340 1642.251343,1761.304443 1654.927979,1750.459473 
	C1665.809326,1741.150635 1676.560791,1731.637329 1686.758057,1721.593628 
	C1703.092285,1705.505371 1719.396606,1689.336914 1734.825928,1672.394043 
	C1749.585938,1656.185669 1763.514038,1639.187500 1777.247314,1622.086426 
	C1788.669434,1607.863037 1799.608643,1593.220581 1810.153564,1578.333008 
	C1820.655518,1563.505859 1830.850464,1548.419067 1840.362549,1532.943604 
	C1852.000000,1514.010498 1863.574585,1494.960205 1873.742676,1475.222046 
	C1886.553711,1450.353516 1898.503052,1424.995483 1909.713135,1399.362915 
	C1918.386475,1379.530518 1925.857300,1359.125977 1932.933472,1338.654541 
	C1940.122192,1317.857788 1946.739136,1296.822632 1952.552856,1275.603027 
	C1957.780518,1256.521606 1961.772949,1237.090332 1965.944092,1217.734497 
	C1968.921631,1203.917603 1971.455566,1189.998291 1973.877563,1176.070923 
	C1975.527710,1166.581421 1976.851318,1157.022583 1977.942871,1147.451660 
	C1979.187744,1136.536011 1980.128784,1125.581421 1980.993530,1114.627441 
	C1982.417114,1096.589966 1984.527832,1078.552002 1984.801880,1060.490845 
	C1985.222778,1032.739014 1984.387329,1004.966553 1983.968750,977.204590 
	C1983.834229,968.271057 1983.393311,959.340149 1982.973022,950.413696 
	C1982.780273,946.319702 1982.401123,942.227478 1981.929199,938.155029 
	C1980.328979,924.347900 1978.718994,910.541199 1976.977051,896.751404 
	C1975.707886,886.703796 1974.586670,876.616699 1972.755493,866.665710 
	C1969.785645,850.527527 1966.746460,834.376099 1962.906616,818.430176 
	C1957.027100,794.013855 1950.936890,769.624939 1943.995239,745.495178 
	C1938.764648,727.312927 1932.722778,709.296448 1925.853027,691.669495 
	C1915.903809,666.141357 1905.625488,640.687500 1894.136230,615.826477 
	C1878.085327,581.094849 1860.096558,547.312195 1839.022583,515.291687 
	C1826.539307,496.324066 1814.401367,477.083588 1800.991333,458.784332 
	C1787.276367,440.068939 1772.485596,422.112823 1757.625000,404.274902 
	C1745.309448,389.492065 1732.917969,374.649475 1719.292480,361.108978 
	C1697.098022,339.052826 1674.069824,317.818665 1650.993896,296.673492 
	C1639.405884,286.055054 1627.425537,275.731628 1614.761597,266.449524 
	C1591.807739,249.625397 1568.631714,233.028885 1544.757446,217.558029 
	C1522.411621,203.077682 1499.526245,189.260483 1475.991699,176.829803 
	C1449.825928,163.009232 1423.096436,150.036377 1395.802124,138.633926 
	C1368.652100,127.291756 1340.765747,117.506668 1312.701538,108.619644 
	C1287.406616,100.609467 1261.591553,94.049500 1235.712891,88.131065 
	C1212.583740,82.841469 1189.117798,78.912109 1165.681763,75.114311 
	C1147.455444,72.160744 1129.080811,70.002205 1110.708374,68.109756 
	C1095.969482,66.591591 1081.140015,65.261131 1066.341675,65.159355 
	C1037.081909,64.958099 1007.809326,65.396843 978.555176,66.107864 
	C963.748535,66.467720 948.953491,67.799698 934.184692,69.060997 
	C922.281189,70.077599 910.379150,71.331192 898.558350,73.044907 
	C879.685425,75.780975 860.734314,78.282867 842.081909,82.161415 
	C815.559998,87.676323 789.048645,93.520592 762.962341,100.769958 
	C738.956177,107.441238 715.240356,115.416016 691.904053,124.169365 
	C666.403381,133.734573 641.255615,144.339905 616.391174,155.468643 
	C598.867188,163.311966 581.969543,172.590759 564.986755,181.595413 
	C552.510559,188.210541 539.979675,194.846512 528.127991,202.488754 
	C506.306732,216.559555 484.645630,230.927292 463.523102,246.018539 
	C444.720856,259.452087 426.379578,273.594757 408.500458,288.237183 
	C392.859894,301.046295 377.796875,314.618774 363.125885,328.536224 
	C350.127411,340.867065 337.712280,353.854919 325.596191,367.063263 
	C310.252838,383.789734 295.123383,400.740540 280.561066,418.146271 
	C269.169861,431.761719 258.350433,445.909729 248.058441,460.377014 
	C234.958191,478.791931 222.136841,497.448303 210.137589,516.591248 
	C198.143478,535.726135 186.536453,555.188721 176.167953,575.235901 
	C163.392853,599.936157 151.476028,625.127686 140.317383,650.601501 
	C131.623306,670.448853 124.144928,690.875977 117.065239,711.369873 
	C110.092857,731.553101 103.867592,752.023132 98.124596,772.593506 
	C93.159668,790.376953 89.014076,808.408936 85.097481,826.459351 
	C81.720451,842.022949 79.034927,857.742676 76.315903,873.440613 
	C74.616737,883.250610 73.231064,893.125366 72.053665,903.012573 
	C70.812759,913.433105 69.866280,923.893250 69.007164,934.353760 
	C67.580620,951.723145 65.329552,969.099426 65.202126,986.485840 
	C64.912849,1025.955566 63.632336,1065.480713 67.955475,1104.862915 
	C68.924225,1113.687866 69.013893,1122.613770 70.093414,1131.421387 
	C72.179321,1148.440186 74.273361,1165.476929 77.120270,1182.378662 
	C80.329979,1201.434448 83.606438,1220.538330 88.218399,1239.285645 
	C96.929115,1274.694092 106.497780,1309.866943 118.830589,1344.275024 
	C129.614807,1374.362549 141.028824,1404.198853 155.181656,1432.804688 
	C170.034805,1462.826294 185.562347,1492.593750 202.462677,1521.497192 
	C215.567764,1543.910156 230.596558,1565.292603 245.942307,1586.275879 
	C262.975372,1609.566284 281.079193,1632.093872 299.232635,1654.536499 
	C308.333160,1665.786865 318.268127,1676.414551 328.386200,1686.776489 
	C340.909515,1699.601685 353.826508,1712.059937 366.922272,1724.303711 
	C379.420746,1735.989014 392.209869,1747.377319 405.164246,1758.556763 
	C416.312531,1768.177368 427.461884,1777.884033 439.342010,1786.550415 
	C461.131348,1802.445435 483.029419,1818.268921 505.685089,1832.876953 
	C527.898438,1847.199707 550.649963,1860.845581 574.010681,1873.188721 
	C599.032715,1886.409668 624.644897,1898.706665 650.730408,1909.667847 
	C676.993103,1920.703613 704.023499,1929.977661 730.957214,1939.333862 
	C759.788940,1949.349243 789.254211,1957.257324 819.243591,1963.058105 
	C842.077698,1967.474976 864.879883,1972.128906 887.831055,1975.844727 
	C904.781921,1978.588867 921.920837,1980.302734 939.029724,1981.900146 
	C954.447388,1983.339844 969.933960,1984.757568 985.397461,1984.842407 
	C1018.324524,1985.023071 1051.256836,1984.369751 1084.185669,1983.959961 
	C1089.286255,1983.896606 1094.398438,1983.482544 1099.474243,1982.940063 
	C1114.126831,1981.374268 1128.772827,1979.736328 1143.403931,1977.981201 
	C1156.539795,1976.405762 1169.729248,1975.084229 1182.757568,1972.849243 
	C1201.646973,1969.608643 1220.607544,1966.429810 1239.184326,1961.804932 
	C1265.557373,1955.239258 1291.759033,1947.872437 1317.748413,1939.915405 
	C1336.913330,1934.047974 1355.909668,1927.395386 1374.461914,1919.820923 
	C1398.784302,1909.890381 1422.595825,1898.708130 1447.376221,1887.934937 
z"/>
<path fill="#FB8C00" opacity="1.000000" stroke="none" 
	d="
M1447.001709,1887.999634 
	C1422.595825,1898.708130 1398.784302,1909.890381 1374.461914,1919.820923 
	C1355.909668,1927.395386 1336.913330,1934.047974 1317.748413,1939.915405 
	C1291.759033,1947.872437 1265.557373,1955.239258 1239.184326,1961.804932 
	C1220.607544,1966.429810 1201.646973,1969.608643 1182.757568,1972.849243 
	C1169.729248,1975.084229 1156.539795,1976.405762 1143.403931,1977.981201 
	C1128.772827,1979.736328 1114.126831,1981.374268 1099.474243,1982.940063 
	C1094.398438,1983.482544 1089.286255,1983.896606 1084.185669,1983.959961 
	C1051.256836,1984.369751 1018.324524,1985.023071 985.397461,1984.842407 
	C969.933960,1984.757568 954.447388,1983.339844 939.029724,1981.900146 
	C921.920837,1980.302734 904.781921,1978.588867 887.831055,1975.844727 
	C864.879883,1972.128906 842.077698,1967.474976 819.243591,1963.058105 
	C789.254211,1957.257324 759.788940,1949.349243 730.957214,1939.333862 
	C704.023499,1929.977661 676.993103,1920.703613 650.730408,1909.667847 
	C624.644897,1898.706665 599.032715,1886.409668 574.010681,1873.188721 
	C550.649963,1860.845581 527.898438,1847.199707 505.685089,1832.876953 
	C483.029419,1818.268921 461.131348,1802.445435 439.342010,1786.550415 
	C427.461884,1777.884033 416.312531,1768.177368 405.164246,1758.556763 
	C392.209869,1747.377319 379.420746,1735.989014 366.922272,1724.303711 
	C353.826508,1712.059937 340.909515,1699.601685 328.386200,1686.776489 
	C318.268127,1676.414551 308.333160,1665.786865 299.232635,1654.536499 
	C281.079193,1632.093872 262.975372,1609.566284 245.942307,1586.275879 
	C230.596558,1565.292603 215.567764,1543.910156 202.462677,1521.497192 
	C185.562347,1492.593750 170.034805,1462.826294 155.181656,1432.804688 
	C141.028824,1404.198853 129.614807,1374.362549 118.830589,1344.275024 
	C106.497780,1309.866943 96.929115,1274.694092 88.218399,1239.285645 
	C83.606438,1220.538330 80.329979,1201.434448 77.120270,1182.378662 
	C74.273361,1165.476929 72.179321,1148.440186 70.093414,1131.421387 
	C69.013893,1122.613770 68.924225,1113.687866 67.955475,1104.862915 
	C63.632336,1065.480713 64.912849,1025.955566 65.202126,986.485840 
	C65.329552,969.099426 67.580620,951.723145 69.007164,934.353760 
	C69.866280,923.893250 70.812759,913.433105 72.053665,903.012573 
	C73.231064,893.125366 74.616737,883.250610 76.315903,873.440613 
	C79.034927,857.742676 81.720451,842.022949 85.097481,826.459351 
	C89.014076,808.408936 93.159668,790.376953 98.124596,772.593506 
	C103.867592,752.023132 110.092857,731.553101 117.065239,711.369873 
	C124.144928,690.875977 131.623306,670.448853 140.317383,650.601501 
	C151.476028,625.127686 163.392853,599.936157 176.167953,575.235901 
	C186.536453,555.188721 198.143478,535.726135 210.137589,516.591248 
	C222.136841,497.448303 234.958191,478.791931 248.058441,460.377014 
	C258.350433,445.909729 269.169861,431.761719 280.561066,418.146271 
	C295.123383,400.740540 310.252838,383.789734 325.596191,367.063263 
	C337.712280,353.854919 350.127411,340.867065 363.125885,328.536224 
	C377.796875,314.618774 392.859894,301.046295 408.500458,288.237183 
	C426.379578,273.594757 444.720856,259.452087 463.523102,246.018539 
	C484.645630,230.927292 506.306732,216.559555 528.127991,202.488754 
	C539.979675,194.846512 552.510559,188.210541 564.986755,181.595413 
	C581.969543,172.590759 598.867188,163.311966 616.391174,155.468643 
	C641.255615,144.339905 666.403381,133.734573 691.904053,124.169365 
	C715.240356,115.416016 738.956177,107.441238 762.962341,100.769958 
	C789.048645,93.520592 815.559998,87.676323 842.081909,82.161415 
	C860.734314,78.282867 879.685425,75.780975 898.558350,73.044907 
	C910.379150,71.331192 922.281189,70.077599 934.184692,69.060997 
	C948.953491,67.799698 963.748535,66.467720 978.555176,66.107864 
	C1007.809326,65.396843 1037.081909,64.958099 1066.341675,65.159355 
	C1081.140015,65.261131 1095.969482,66.591591 1110.708374,68.109756 
	C1129.080811,70.002205 1147.455444,72.160744 1165.681763,75.114311 
	C1189.117798,78.912109 1212.583740,82.841469 1235.712891,88.131065 
	C1261.591553,94.049500 1287.406616,100.609467 1312.701538,108.619644 
	C1340.765747,117.506668 1368.652100,127.291756 1395.802124,138.633926 
	C1423.096436,150.036377 1449.825928,163.009232 1475.991699,176.829803 
	C1499.526245,189.260483 1522.411621,203.077682 1544.757446,217.558029 
	C1568.631714,233.028885 1591.807739,249.625397 1614.761597,266.449524 
	C1627.425537,275.731628 1639.405884,286.055054 1650.993896,296.673492 
	C1674.069824,317.818665 1697.098022,339.052826 1719.292480,361.108978 
	C1732.917969,374.649475 1745.309448,389.492065 1757.625000,404.274902 
	C1772.485596,422.112823 1787.276367,440.068939 1800.991333,458.784332 
	C1814.401367,477.083588 1826.539307,496.324066 1839.022583,515.291687 
	C1860.096558,547.312195 1878.085327,581.094849 1894.136230,615.826477 
	C1905.625488,640.687500 1915.903809,666.141357 1925.853027,691.669495 
	C1932.722778,709.296448 1938.764648,727.312927 1943.995239,745.495178 
	C1950.936890,769.624939 1957.027100,794.013855 1962.906616,818.430176 
	C1966.746460,834.376099 1969.785645,850.527527 1972.755493,866.665710 
	C1974.586670,876.616699 1975.707886,886.703796 1976.977051,896.751404 
	C1978.718994,910.541199 1980.328979,924.347900 1981.929199,938.155029 
	C1982.401123,942.227478 1982.780273,946.319702 1982.973022,950.413696 
	C1983.393311,959.340149 1983.834229,968.271057 1983.968750,977.204590 
	C1984.387329,1004.966553 1985.222778,1032.739014 1984.801880,1060.490845 
	C1984.527832,1078.552002 1982.417114,1096.589966 1980.993530,1114.627441 
	C1980.128784,1125.581421 1979.187744,1136.536011 1977.942871,1147.451660 
	C1976.851318,1157.022583 1975.527710,1166.581421 1973.877563,1176.070923 
	C1971.455566,1189.998291 1968.921631,1203.917603 1965.944092,1217.734497 
	C1961.772949,1237.090332 1957.780518,1256.521606 1952.552856,1275.603027 
	C1946.739136,1296.822632 1940.122192,1317.857788 1932.933472,1338.654541 
	C1925.857300,1359.125977 1918.386475,1379.530518 1909.713135,1399.362915 
	C1898.503052,1424.995483 1886.553711,1450.353516 1873.742676,1475.222046 
	C1863.574585,1494.960205 1852.000000,1514.010498 1840.362549,1532.943604 
	C1830.850464,1548.419067 1820.655518,1563.505859 1810.153564,1578.333008 
	C1799.608643,1593.220581 1788.669434,1607.863037 1777.247314,1622.086426 
	C1763.514038,1639.187500 1749.585938,1656.185669 1734.825928,1672.394043 
	C1719.396606,1689.336914 1703.092285,1705.505371 1686.758057,1721.593628 
	C1676.560791,1731.637329 1665.809326,1741.150635 1654.927979,1750.459473 
	C1642.251343,1761.304443 1629.538696,1772.173340 1616.165405,1782.122803 
	C1594.360352,1798.345337 1572.380737,1814.391968 1549.768921,1829.453125 
	C1531.011353,1841.947388 1511.421143,1853.236572 1491.851929,1864.452637 
	C1477.315552,1872.784058 1462.221802,1880.142944 1447.001709,1887.999634 
M918.500000,561.000000 
	C838.078674,561.000000 757.657410,561.000000 677.382446,561.000000 
	C677.382446,870.737000 677.382446,1179.790771 677.382446,1488.999756 
	C678.759338,1488.999756 679.753357,1489.001831 680.747375,1488.999634 
	C826.507812,1488.666504 972.268372,1488.377930 1118.028442,1487.917114 
	C1130.055786,1487.879150 1142.118530,1487.073486 1154.095337,1485.910156 
	C1170.697632,1484.297974 1187.360107,1482.720215 1203.764282,1479.814819 
	C1221.147461,1476.735962 1238.617554,1473.236938 1255.383789,1467.849121 
	C1271.033325,1462.820435 1286.124146,1455.706299 1300.892212,1448.365723 
	C1320.601685,1438.568726 1337.818848,1424.926147 1353.613281,1409.715210 
	C1368.853149,1395.038452 1381.951050,1378.553101 1393.286621,1360.569702 
	C1404.610962,1342.604248 1414.744019,1324.078979 1421.352539,1303.927246 
	C1425.731934,1290.573242 1428.659424,1276.730225 1431.965210,1263.040405 
	C1436.118530,1245.841309 1437.429199,1228.308350 1436.939087,1210.673096 
	C1436.586060,1197.972046 1436.318115,1185.209595 1434.823486,1172.615601 
	C1433.294556,1159.732666 1430.999390,1146.848877 1427.814941,1134.275635 
	C1422.898560,1114.864014 1415.201294,1096.498047 1404.843628,1079.221313 
	C1393.639404,1060.532227 1379.919800,1044.009521 1362.849976,1030.611084 
	C1351.489868,1021.694458 1339.435303,1013.487854 1326.957886,1006.223633 
	C1316.569458,1000.175537 1305.112427,995.962585 1293.969727,990.864014 
	C1295.886353,989.584412 1297.734741,988.327820 1299.609741,987.112427 
	C1300.151733,986.761047 1300.777100,986.540466 1301.352661,986.238098 
	C1326.472412,973.042480 1349.291992,956.966980 1367.105957,934.451233 
	C1378.724731,919.765991 1387.568115,903.622864 1394.068359,886.088196 
	C1404.213501,858.720642 1407.238770,830.209656 1407.930542,801.330627 
	C1408.076294,795.244324 1407.503052,789.121521 1406.961792,783.042297 
	C1406.061401,772.929688 1405.637451,762.700073 1403.720825,752.769043 
	C1400.309937,735.093750 1395.432495,717.835144 1388.214600,701.169434 
	C1378.504395,678.749390 1365.701172,658.448547 1349.010620,640.765015 
	C1341.265503,632.559082 1332.377319,625.363037 1323.588867,618.224365 
	C1301.086670,599.946106 1275.168823,587.911438 1247.810791,579.208313 
	C1225.336548,572.058838 1202.274414,566.905884 1178.653931,565.019226 
	C1159.947144,563.525024 1141.223389,561.311218 1122.495117,561.182678 
	C1054.832886,560.718323 987.165466,561.000000 918.500000,561.000000 
z"/>
<path fill="#FFFFFF" opacity="1.000000" stroke="none" 
	d="
M919.000000,561.000000 
	C987.165466,561.000000 1054.832886,560.718323 1122.495117,561.182678 
	C1141.223389,561.311218 1159.947144,563.525024 1178.653931,565.019226 
	C1202.274414,566.905884 1225.336548,572.058838 1247.810791,579.208313 
	C1275.168823,587.911438 1301.086670,599.946106 1323.588867,618.224365 
	C1332.377319,625.363037 1341.265503,632.559082 1349.010620,640.765015 
	C1365.701172,658.448547 1378.504395,678.749390 1388.214600,701.169434 
	C1395.432495,717.835144 1400.309937,735.093750 1403.720825,752.769043 
	C1405.637451,762.700073 1406.061401,772.929688 1406.961792,783.042297 
	C1407.503052,789.121521 1408.076294,795.244324 1407.930542,801.330627 
	C1407.238770,830.209656 1404.213501,858.720642 1394.068359,886.088196 
	C1387.568115,903.622864 1378.724731,919.765991 1367.105957,934.451233 
	C1349.291992,956.966980 1326.472412,973.042480 1301.352661,986.238098 
	C1300.777100,986.540466 1300.151733,986.761047 1299.609741,987.112427 
	C1297.734741,988.327820 1295.886353,989.584412 1293.969727,990.864014 
	C1305.112427,995.962585 1316.569458,1000.175537 1326.957886,1006.223633 
	C1339.435303,1013.487854 1351.489868,1021.694458 1362.849976,1030.611084 
	C1379.919800,1044.009521 1393.639404,1060.532227 1404.843628,1079.221313 
	C1415.201294,1096.498047 1422.898560,1114.864014 1427.814941,1134.275635 
	C1430.999390,1146.848877 1433.294556,1159.732666 1434.823486,1172.615601 
	C1436.318115,1185.209595 1436.586060,1197.972046 1436.939087,1210.673096 
	C1437.429199,1228.308350 1436.118530,1245.841309 1431.965210,1263.040405 
	C1428.659424,1276.730225 1425.731934,1290.573242 1421.352539,1303.927246 
	C1414.744019,1324.078979 1404.610962,1342.604248 1393.286621,1360.569702 
	C1381.951050,1378.553101 1368.853149,1395.038452 1353.613281,1409.715210 
	C1337.818848,1424.926147 1320.601685,1438.568726 1300.892212,1448.365723 
	C1286.124146,1455.706299 1271.033325,1462.820435 1255.383789,1467.849121 
	C1238.617554,1473.236938 1221.147461,1476.735962 1203.764282,1479.814819 
	C1187.360107,1482.720215 1170.697632,1484.297974 1154.095337,1485.910156 
	C1142.118530,1487.073486 1130.055786,1487.879150 1118.028442,1487.917114 
	C972.268372,1488.377930 826.507812,1488.666504 680.747375,1488.999634 
	C679.753357,1489.001831 678.759338,1488.999756 677.382446,1488.999756 
	C677.382446,1179.790771 677.382446,870.737000 677.382446,561.000000 
	C757.657410,561.000000 838.078674,561.000000 919.000000,561.000000 
M986.500000,1079.999878 
	C944.755676,1079.999878 903.011292,1079.999878 861.338623,1079.999878 
	C861.338623,1163.019531 861.338623,1245.388794 861.338623,1328.000000 
	C863.657837,1328.000000 865.639526,1328.000000 867.621216,1328.000000 
	C942.093201,1328.000000 1016.565796,1328.161011 1091.036621,1327.864502 
	C1105.987793,1327.804932 1120.976440,1326.434814 1135.868530,1324.899780 
	C1154.296509,1323.000000 1171.837891,1317.672485 1188.009644,1308.456909 
	C1204.603027,1299.000977 1217.484863,1285.838013 1226.546143,1268.961060 
	C1236.038818,1251.280762 1240.718384,1232.127808 1241.726562,1212.381348 
	C1242.455566,1198.103882 1241.670044,1183.565674 1239.784668,1169.379761 
	C1236.720947,1146.325684 1226.159180,1126.891357 1208.200684,1111.589478 
	C1196.721680,1101.808472 1183.726685,1094.836792 1169.553955,1090.366455 
	C1145.987671,1082.932739 1121.548462,1080.349854 1096.957886,1080.097046 
	C1060.475342,1079.722046 1023.986267,1079.999878 986.500000,1079.999878 
M1016.500000,722.000000 
	C964.757080,722.000000 913.014099,722.000000 861.347168,722.000000 
	C861.347168,790.690247 861.347168,858.731812 861.347168,927.000000 
	C863.676941,927.000000 865.660828,927.000000 867.644714,927.000000 
	C944.285583,927.000000 1020.926514,927.067078 1097.567017,926.910339 
	C1106.590332,926.891846 1115.698608,926.215576 1124.614990,924.849304 
	C1144.454834,921.809570 1163.747437,916.610779 1181.448242,906.810913 
	C1197.749878,897.785828 1209.367676,884.615479 1216.113525,867.038391 
	C1222.309570,850.893799 1223.254272,834.205933 1223.085083,817.195862 
	C1222.918091,800.406067 1219.864868,784.434326 1211.879517,769.568298 
	C1203.151001,753.318848 1189.919189,742.137085 1172.657959,735.976624 
	C1145.628906,726.330078 1117.380859,723.169128 1088.969971,722.171570 
	C1065.173950,721.336121 1041.325317,722.000000 1016.500000,722.000000 
z"/>
<path fill="#FB8C00" opacity="1.000000" stroke="none" 
	d="
M987.000000,1079.999878 
	C1023.986267,1079.999878 1060.475342,1079.722046 1096.957886,1080.097046 
	C1121.548462,1080.349854 1145.987671,1082.932739 1169.553955,1090.366455 
	C1183.726685,1094.836792 1196.721680,1101.808472 1208.200684,1111.589478 
	C1226.159180,1126.891357 1236.720947,1146.325684 1239.784668,1169.379761 
	C1241.670044,1183.565674 1242.455566,1198.103882 1241.726562,1212.381348 
	C1240.718384,1232.127808 1236.038818,1251.280762 1226.546143,1268.961060 
	C1217.484863,1285.838013 1204.603027,1299.000977 1188.009644,1308.456909 
	C1171.837891,1317.672485 1154.296509,1323.000000 1135.868530,1324.899780 
	C1120.976440,1326.434814 1105.987793,1327.804932 1091.036621,1327.864502 
	C1016.565796,1328.161011 942.093201,1328.000000 867.621216,1328.000000 
	C865.639526,1328.000000 863.657837,1328.000000 861.338623,1328.000000 
	C861.338623,1245.388794 861.338623,1163.019531 861.338623,1079.999878 
	C903.011292,1079.999878 944.755676,1079.999878 987.000000,1079.999878 
z"/>
<path fill="#FB8C00" opacity="1.000000" stroke="none" 
	d="
M1017.000000,722.000000 
	C1041.325317,722.000000 1065.173950,721.336121 1088.969971,722.171570 
	C1117.380859,723.169128 1145.628906,726.330078 1172.657959,735.976624 
	C1189.919189,742.137085 1203.151001,753.318848 1211.879517,769.568298 
	C1219.864868,784.434326 1222.918091,800.406067 1223.085083,817.195862 
	C1223.254272,834.205933 1222.309570,850.893799 1216.113525,867.038391 
	C1209.367676,884.615479 1197.749878,897.785828 1181.448242,906.810913 
	C1163.747437,916.610779 1144.454834,921.809570 1124.614990,924.849304 
	C1115.698608,926.215576 1106.590332,926.891846 1097.567017,926.910339 
	C1020.926514,927.067078 944.285583,927.000000 867.644714,927.000000 
	C865.660828,927.000000 863.676941,927.000000 861.347168,927.000000 
	C861.347168,858.731812 861.347168,790.690247 861.347168,722.000000 
	C913.014099,722.000000 964.757080,722.000000 1017.000000,722.000000 
z"/>
</svg>